# xmcd
# 
# Track frame offsets:
#     150
#     19103
#     38570
#     57303
# 
# Disc length: 1021
# 
# Revision: 0
# Processed by: cddbd v1.5.2PL0 Copyright (c) Steve Scherf et al.
# Submitted via: fre:ac v1.0.31
# 
DISCID=2803fb04
DTITLE=郭富城 - 妳是我的一切
DYEAR=1995
DGENRE=Pop
TTITLE0=妳是我的一切
TTITLE1=望鄉
TTITLE2=妳是我的一切 (純音樂版本)
TTITLE3=望鄉 (純音樂版本)
EXTD=
EXTT0=
EXTT1=
EXTT2=
EXTT3=
PLAYORDER=
